<svg xmlns="http://www.w3.org/2000/svg" xmlns:xlink="http://www.w3.org/1999/xlink" width="500" zoomAndPan="magnify" viewBox="0 0 375 374.999991" height="500" preserveAspectRatio="xMidYMid meet" version="1.2"><defs><clipPath id="2c233b1cc6"><path d="M 110.433594 87.898438 L 264.933594 87.898438 L 264.933594 287 L 110.433594 287 Z M 110.433594 87.898438 "/></clipPath></defs><g id="eb8634abae"><g style="fill:#000000;fill-opacity:1;"><g transform="translate(-41.362958, 319.91576)"><path style="stroke:none" d="M 103.734375 0 C 88.859375 0 77.289062 -5.59375 69.03125 -16.78125 C 63.4375 -24.40625 60.640625 -32.921875 60.640625 -42.328125 C 60.640625 -46.648438 61.210938 -51.164062 62.359375 -55.875 L 71.890625 -93.0625 C 72.273438 -94.582031 72.46875 -96.039062 72.46875 -97.4375 C 72.46875 -100.613281 71.507812 -103.472656 69.59375 -106.015625 C 66.800781 -109.703125 62.925781 -111.546875 57.96875 -111.546875 C 57.84375 -111.546875 57.71875 -111.546875 57.59375 -111.546875 C 53.007812 -111.546875 49.320312 -113.390625 46.53125 -117.078125 C 44.625 -119.617188 43.671875 -122.484375 43.671875 -125.671875 C 43.671875 -127.066406 43.859375 -128.585938 44.234375 -130.234375 C 45.503906 -135.191406 48.457031 -139.515625 53.09375 -143.203125 C 57.738281 -146.890625 62.539062 -148.734375 67.5 -148.734375 L 68.453125 -148.734375 C 72.773438 -148.734375 77.097656 -150.453125 81.421875 -153.890625 C 86.378906 -157.828125 89.554688 -162.335938 90.953125 -167.421875 L 100.6875 -204.609375 C 104.5 -219.484375 113.394531 -232.484375 127.375 -243.609375 C 141.363281 -254.734375 155.796875 -260.296875 170.671875 -260.296875 C 175.628906 -260.296875 179.503906 -258.453125 182.296875 -254.765625 C 184.203125 -252.222656 185.15625 -249.359375 185.15625 -246.171875 C 185.15625 -244.773438 184.96875 -243.316406 184.59375 -241.796875 C 183.320312 -236.835938 180.300781 -232.484375 175.53125 -228.734375 C 170.757812 -224.984375 165.894531 -223.109375 160.9375 -223.109375 C 155.976562 -223.109375 151.210938 -221.265625 146.640625 -217.578125 C 142.066406 -213.890625 139.144531 -209.566406 137.875 -204.609375 L 128.140625 -167.421875 C 124.328125 -152.546875 115.429688 -139.515625 101.453125 -128.328125 C 107.679688 -122.359375 110.796875 -114.859375 110.796875 -105.828125 C 110.796875 -101.890625 110.222656 -97.632812 109.078125 -93.0625 L 99.546875 -55.875 C 99.160156 -54.34375 98.96875 -52.816406 98.96875 -51.296875 C 99.09375 -48.117188 100.046875 -45.257812 101.828125 -42.71875 C 104.492188 -39.03125 108.179688 -37.1875 112.890625 -37.1875 C 113.015625 -37.1875 113.140625 -37.1875 113.265625 -37.1875 C 118.222656 -37.1875 122.101562 -35.34375 124.90625 -31.65625 C 126.8125 -29.113281 127.765625 -26.253906 127.765625 -23.078125 C 127.765625 -21.671875 127.570312 -20.207031 127.1875 -18.6875 C 125.914062 -13.726562 122.925781 -9.375 118.21875 -5.625 C 113.519531 -1.875 108.691406 0 103.734375 0 Z M 103.734375 0 "/></g></g><g style="fill:#000000;fill-opacity:1;"><g transform="translate(187.444121, 319.91576)"><path style="stroke:none" d="M 125.09375 -259.90625 C 139.96875 -259.90625 151.535156 -254.3125 159.796875 -243.125 C 165.390625 -235.5 168.1875 -226.984375 168.1875 -217.578125 C 168.1875 -213.253906 167.613281 -208.738281 166.46875 -204.03125 L 156.9375 -166.859375 C 156.550781 -165.328125 156.359375 -163.863281 156.359375 -162.46875 C 156.359375 -159.289062 157.3125 -156.429688 159.21875 -153.890625 C 162.019531 -150.203125 165.898438 -148.359375 170.859375 -148.359375 C 175.691406 -148.359375 179.503906 -146.453125 182.296875 -142.640625 C 184.203125 -140.097656 185.15625 -137.300781 185.15625 -134.25 C 185.15625 -132.84375 184.96875 -131.316406 184.59375 -129.671875 C 183.320312 -124.710938 180.363281 -120.390625 175.71875 -116.703125 C 171.082031 -113.015625 166.285156 -111.171875 161.328125 -111.171875 L 160.375 -111.171875 C 156.050781 -111.171875 151.726562 -109.453125 147.40625 -106.015625 C 142.445312 -102.078125 139.269531 -97.566406 137.875 -92.484375 L 128.140625 -55.296875 C 124.328125 -40.421875 115.425781 -27.421875 101.4375 -16.296875 C 87.457031 -5.179688 73.03125 0.375 58.15625 0.375 C 53.195312 0.375 49.320312 -1.46875 46.53125 -5.15625 C 44.625 -7.695312 43.671875 -10.554688 43.671875 -13.734375 C 43.671875 -15.128906 43.859375 -16.585938 44.234375 -18.109375 C 45.503906 -23.066406 48.523438 -27.421875 53.296875 -31.171875 C 58.066406 -34.921875 62.929688 -36.796875 67.890625 -36.796875 C 72.847656 -36.796875 77.613281 -38.640625 82.1875 -42.328125 C 86.757812 -46.015625 89.679688 -50.335938 90.953125 -55.296875 L 100.6875 -92.484375 C 104.5 -107.359375 113.394531 -120.390625 127.375 -131.578125 C 121.144531 -137.546875 118.03125 -145.046875 118.03125 -154.078125 C 118.03125 -158.015625 118.601562 -162.273438 119.75 -166.859375 L 129.28125 -204.03125 C 129.664062 -205.5625 129.859375 -207.085938 129.859375 -208.609375 C 129.734375 -211.660156 128.78125 -214.457031 127 -217 C 124.195312 -220.8125 120.382812 -222.71875 115.5625 -222.71875 C 110.601562 -222.71875 106.722656 -224.5625 103.921875 -228.25 C 102.015625 -230.789062 101.0625 -233.648438 101.0625 -236.828125 C 101.0625 -238.234375 101.253906 -239.695312 101.640625 -241.21875 C 102.910156 -246.175781 105.894531 -250.53125 110.59375 -254.28125 C 115.300781 -258.03125 120.132812 -259.90625 125.09375 -259.90625 Z M 125.09375 -259.90625 "/></g></g><g clip-rule="nonzero" clip-path="url(#2c233b1cc6)"><path style=" stroke:none;fill-rule:nonzero;fill:#000000;fill-opacity:1;" d="M 187.238281 87.902344 C 175.121094 88.148438 165.421875 98.03125 165.421875 110.140625 C 165.421875 122.429688 175.378906 132.386719 187.679688 132.386719 C 199.980469 132.386719 209.933594 122.421875 209.933594 110.140625 C 209.941406 97.863281 199.980469 87.902344 187.683594 87.902344 C 187.53125 87.902344 187.390625 87.902344 187.238281 87.902344 Z M 120.417969 114.898438 C 117.566406 114.945312 114.761719 116.191406 112.820312 118.488281 C 112.027344 119.421875 111.445312 120.46875 111.050781 121.566406 C 110.660156 122.660156 110.484375 123.808594 110.488281 124.953125 C 110.488281 126.105469 110.6875 127.261719 111.085938 128.355469 C 111.484375 129.445312 112.078125 130.488281 112.871094 131.417969 C 113.238281 131.84375 113.621094 132.222656 114.035156 132.570312 C 114.472656 132.941406 114.917969 133.3125 115.390625 133.597656 C 115.390625 133.597656 115.394531 133.597656 115.398438 133.605469 C 128.730469 141.441406 142.976562 147.675781 157.800781 152.085938 C 159.996094 152.742188 162.230469 153.261719 164.457031 153.839844 L 164.457031 197.277344 C 160.394531 206.296875 156.519531 215.398438 152.941406 224.628906 C 147.03125 239.863281 141.867188 255.378906 137.324219 271.066406 C 137.320312 271.082031 137.320312 271.09375 137.316406 271.101562 L 137.296875 271.15625 C 137.28125 271.191406 137.257812 271.222656 137.246094 271.257812 C 137.246094 271.269531 137.246094 271.269531 137.246094 271.277344 C 135.261719 277.097656 138.390625 283.449219 144.214844 285.429688 C 150.039062 287.40625 156.382812 284.277344 158.363281 278.453125 C 158.457031 278.171875 158.5625 277.871094 158.636719 277.542969 C 163.015625 262.378906 168.066406 247.40625 173.765625 232.691406 C 176.570312 225.464844 179.59375 218.324219 182.714844 211.222656 L 192.648438 211.222656 C 195.765625 218.320312 198.796875 225.460938 201.59375 232.691406 C 207.300781 247.40625 212.347656 262.378906 216.71875 277.542969 C 216.800781 277.871094 216.894531 278.171875 216.996094 278.453125 C 218.972656 284.277344 225.320312 287.40625 231.148438 285.429688 C 236.972656 283.457031 240.09375 277.097656 238.117188 271.277344 C 238.117188 271.269531 238.117188 271.269531 238.117188 271.257812 C 238.101562 271.21875 238.082031 271.1875 238.066406 271.15625 L 238.042969 271.101562 C 238.039062 271.09375 238.039062 271.082031 238.035156 271.066406 C 233.492188 255.378906 228.332031 239.859375 222.417969 224.628906 C 218.847656 215.398438 214.96875 206.296875 210.902344 197.277344 L 210.902344 153.839844 C 213.128906 153.269531 215.355469 152.742188 217.5625 152.085938 C 232.382812 147.675781 246.636719 141.441406 259.96875 133.605469 L 259.96875 133.597656 C 260.441406 133.316406 260.890625 132.945312 261.324219 132.578125 C 261.742188 132.230469 262.121094 131.847656 262.492188 131.425781 C 263.28125 130.492188 263.878906 129.453125 264.273438 128.363281 C 264.675781 127.265625 264.871094 126.105469 264.871094 124.960938 C 264.875 123.816406 264.703125 122.675781 264.308594 121.574219 C 263.925781 120.46875 263.335938 119.421875 262.542969 118.488281 C 259.441406 114.820312 254.128906 113.808594 249.9375 116.167969 C 249.929688 116.167969 249.921875 116.175781 249.914062 116.183594 C 249.902344 116.191406 249.894531 116.199219 249.882812 116.203125 C 237.933594 123.238281 225.125 128.863281 211.828125 132.824219 C 205.914062 134.582031 199.890625 135.910156 193.828125 137.007812 L 181.535156 137.007812 C 175.472656 135.910156 169.445312 134.582031 163.535156 132.824219 C 150.230469 128.855469 137.433594 123.238281 125.476562 116.203125 C 125.46875 116.199219 125.457031 116.191406 125.449219 116.183594 C 125.441406 116.179688 125.433594 116.175781 125.421875 116.167969 C 123.855469 115.28125 122.128906 114.875 120.417969 114.898438 Z M 120.417969 114.898438 "/></g></g></svg>