<?xml version="1.0" encoding="UTF-8" standalone="no"?>
<svg
   width="500"
   zoomAndPan="magnify"
   viewBox="0 0 375 374.99999"
   height="500"
   preserveAspectRatio="xMidYMid"
   version="1.2"
   id="svg6"
   sodipodi:docname="universal-access.svg"
   xmlns:inkscape="http://www.inkscape.org/namespaces/inkscape"
   xmlns:sodipodi="http://sodipodi.sourceforge.net/DTD/sodipodi-0.dtd"
   xmlns="http://www.w3.org/2000/svg"
   xmlns:svg="http://www.w3.org/2000/svg">
  <sodipodi:namedview
     id="namedview6"
     pagecolor="#ffffff"
     bordercolor="#000000"
     borderopacity="0.25"
     inkscape:showpageshadow="2"
     inkscape:pageopacity="0.0"
     inkscape:pagecheckerboard="0"
     inkscape:deskcolor="#d1d1d1">
    <inkscape:page
       x="0"
       y="0"
       width="375"
       height="375"
       id="page2"
       margin="0"
       bleed="0" />
  </sodipodi:namedview>
  <defs
     id="defs1">
    <clipPath
       id="2c233b1cc6">
      <path
         d="m 110.43359,87.898438 h 154.5 V 287 h -154.5 z m 0,0"
         id="path1" />
    </clipPath>
  </defs>
  <g
     id="eb8634abae">
    <g
       style="fill:'currentColor';fill-opacity:1"
       id="g3">
      <g
         transform="translate(-41.362958,319.91576)"
         id="g2">
        <path
           style="stroke:none"
           d="M 103.73438,0 C 88.859375,0 77.289062,-5.59375 69.03125,-16.78125 c -5.59375,-7.625 -8.390625,-16.140625 -8.390625,-25.546875 0,-4.320313 0.570313,-8.835937 1.71875,-13.546875 l 9.53125,-37.1875 c 0.382813,-1.519531 0.578125,-2.976562 0.578125,-4.375 0,-3.17578 -0.960938,-6.03516 -2.875,-8.57813 -2.792969,-3.6875 -6.667969,-5.53125 -11.625,-5.53125 -0.125,0 -0.25,0 -0.375,0 -4.585938,0 -8.273438,-1.84375 -11.0625,-5.53125 -1.90625,-2.53906 -2.859375,-5.40625 -2.859375,-8.59375 0,-1.39453 0.1875,-2.91406 0.5625,-4.56249 1.269531,-4.95704 4.222656,-9.28125 8.859375,-12.96875 4.644531,-3.6875 9.445312,-5.53125 14.40625,-5.53125 h 0.953125 c 4.320313,0 8.644531,-1.71875 12.96875,-5.15625 4.957031,-3.9375 8.132813,-8.44532 9.53125,-13.53125 l 9.734375,-37.1875 c 3.8125,-14.875 12.70703,-27.875 26.6875,-39 13.98828,-11.125 28.42187,-16.6875 43.29687,-16.6875 4.95704,0 8.83204,1.84375 11.625,5.53125 1.90625,2.54296 2.85938,5.40625 2.85938,8.59375 0,1.39843 -0.1875,2.85546 -0.5625,4.375 -1.27344,4.96093 -4.29297,9.3125 -9.0625,13.0625 -4.77344,3.75 -9.63672,5.625 -14.59375,5.625 -4.96094,0 -9.72656,1.84375 -14.29688,5.53125 -4.57421,3.6875 -7.49609,8.01171 -8.76562,12.96875 l -9.73438,37.1875 c -3.81249,14.875 -12.71093,27.90625 -26.68749,39.09375 6.22656,5.96874 9.34375,13.46874 9.34375,22.49999 0,3.9375 -0.57422,8.195318 -1.71875,12.76563 l -9.531255,37.1875 c -0.386719,1.53125 -0.578125,3.058594 -0.578125,4.578125 0.125,3.179687 1.07813,6.039063 2.85938,8.578125 2.66406,3.6875 6.35156,5.53125 11.0625,5.53125 0.125,0 0.25,0 0.375,0 4.95703,0 8.83593,1.84375 11.64062,5.53125 1.90625,2.542969 2.85938,5.402344 2.85938,8.578125 0,1.40625 -0.19532,2.871094 -0.57813,4.390625 -1.27344,4.960938 -4.26172,9.3125 -8.96875,13.0625 C 113.51953,-1.875 108.69141,0 103.73438,0 Z m 0,0"
           id="path2" />
      </g>
    </g>
    <g
       style="fill:'currentColor';fill-opacity:1"
       id="g5">
      <g
         transform="translate(187.44412,319.91576)"
         id="g4">
        <path
           style="stroke:none"
           d="m 125.09375,-259.90625 c 14.875,0 26.44141,5.59375 34.70312,16.78125 5.59375,7.625 8.39063,16.14063 8.39063,25.54688 0,4.32421 -0.57422,8.83984 -1.71875,13.54687 l -9.53125,37.17188 c -0.38672,1.53125 -0.57813,2.99609 -0.57813,4.39062 0,3.17969 0.95313,6.03906 2.85938,8.57813 2.80078,3.6875 6.67969,5.53125 11.64062,5.53125 4.83204,0 8.64454,1.90625 11.4375,5.71875 1.90625,2.54296 2.85938,5.33984 2.85938,8.39062 0,1.40625 -0.1875,2.93359 -0.5625,4.57813 -1.27344,4.96093 -4.23047,9.28124 -8.875,12.96874 -4.63672,3.6875 -9.43359,5.53125 -14.39063,5.53125 H 160.375 c -4.32422,0 -8.64844,1.71875 -12.96875,5.15625 -4.96094,3.9375 -8.13672,8.449224 -9.53125,13.531255 l -9.73438,37.1875 c -3.81249,14.875 -12.71484,27.875 -26.70312,39 C 87.457031,-5.179688 73.03125,0.375 58.15625,0.375 c -4.960938,0 -8.835938,-1.84375 -11.625,-5.53125 -1.90625,-2.539062 -2.859375,-5.398438 -2.859375,-8.578125 0,-1.394531 0.1875,-2.851563 0.5625,-4.375 1.269531,-4.957031 4.289063,-9.3125 9.0625,-13.0625 4.769531,-3.75 9.632813,-5.625 14.59375,-5.625 4.957031,0 9.722656,-1.84375 14.296875,-5.53125 4.570312,-3.6875 7.492188,-8.007813 8.765625,-12.96875 l 9.734375,-37.1875 c 3.8125,-14.875005 12.70703,-27.906255 26.6875,-39.093745 -6.23047,-5.96875 -9.34375,-13.46875 -9.34375,-22.5 0,-3.9375 0.57031,-8.19532 1.71875,-12.78125 l 9.53125,-37.17188 c 0.38281,-1.53125 0.57812,-3.05469 0.57812,-4.57812 -0.125,-3.05079 -1.07812,-5.84766 -2.85937,-8.39063 -2.80469,-3.8125 -6.61719,-5.71875 -11.4375,-5.71875 -4.96094,0 -8.83984,-1.84375 -11.64062,-5.53125 -1.90625,-2.53906 -2.85938,-5.39844 -2.85938,-8.57812 0,-1.40625 0.19141,-2.86719 0.57813,-4.39063 1.26953,-4.95703 4.2539,-9.3125 8.95312,-13.0625 4.70703,-3.75 9.53906,-5.625 14.5,-5.625 z m 0,0"
           id="path3" />
      </g>
    </g>
    <g
       clip-rule="nonzero"
       clip-path="url(#2c233b1cc6)"
       id="g6">
      <path
         style="fill:'currentColor';fill-opacity:1;fill-rule:nonzero;stroke:none"
         d="m 187.23828,87.902344 c -12.11719,0.246094 -21.81641,10.128906 -21.81641,22.238286 0,12.28906 9.95704,22.24609 22.25782,22.24609 12.30078,0 22.2539,-9.96484 22.2539,-22.24609 0.008,-12.277349 -9.95312,-22.238286 -22.25,-22.238286 -0.15234,0 -0.29297,0 -0.44531,0 z m -66.82031,26.996096 c -2.85156,0.0469 -5.65625,1.29297 -7.59766,3.58984 -0.79297,0.9336 -1.375,1.98047 -1.76953,3.07813 -0.39062,1.09375 -0.5664,2.24218 -0.5625,3.38672 0,1.15234 0.19922,2.30859 0.59766,3.40234 0.39844,1.08984 0.99219,2.13281 1.78515,3.0625 0.36719,0.42578 0.75,0.80469 1.16407,1.15234 0.4375,0.3711 0.88281,0.74219 1.35547,1.02735 0,0 0.004,0 0.008,0.008 13.33203,7.83594 27.57812,14.07031 42.40234,18.48047 2.19531,0.65625 4.42969,1.17578 6.65625,1.7539 v 43.4375 c -4.0625,9.01953 -7.9375,18.1211 -11.51562,27.35157 -5.91016,15.23437 -11.07422,30.75 -15.61719,46.4375 -0.004,0.0156 -0.004,0.0273 -0.008,0.0351 l -0.0195,0.0547 c -0.0156,0.0352 -0.0391,0.0664 -0.0508,0.10156 0,0.0117 0,0.0117 0,0.0195 -1.98437,5.82032 1.14453,12.17188 6.96875,14.15235 5.82422,1.97656 12.16797,-1.15235 14.14844,-6.97657 0.0937,-0.28125 0.19922,-0.58203 0.27344,-0.91015 4.3789,-15.16406 9.42969,-30.13672 15.1289,-44.85156 2.80469,-7.22657 5.82813,-14.36719 8.94922,-21.46875 h 9.9336 c 3.11718,7.09765 6.14843,14.23828 8.94531,21.46875 5.70703,14.71484 10.75391,29.6875 15.125,44.85156 0.082,0.32812 0.17578,0.6289 0.27734,0.91015 1.97657,5.82422 8.32422,8.95313 14.15235,6.97657 5.82422,-1.97266 8.94531,-8.33203 6.96875,-14.15235 0,-0.008 0,-0.008 0,-0.0195 -0.0156,-0.0391 -0.0352,-0.0703 -0.0508,-0.10156 l -0.0234,-0.0547 c -0.004,-0.008 -0.004,-0.0195 -0.008,-0.0351 -4.54297,-15.6875 -9.70313,-31.20704 -15.61719,-46.4375 -3.57031,-9.23047 -7.44922,-18.33204 -11.51563,-27.35157 v -43.4375 c 2.22657,-0.57031 4.45313,-1.09765 6.66016,-1.7539 14.82031,-4.41016 29.07422,-10.64453 42.40625,-18.48047 v -0.008 c 0.47266,-0.28125 0.92187,-0.65235 1.35547,-1.01954 0.41797,-0.34765 0.79687,-0.73046 1.16797,-1.15234 0.78906,-0.93359 1.38672,-1.97266 1.78125,-3.0625 0.40234,-1.09765 0.59765,-2.25781 0.59765,-3.40234 0.004,-1.14453 -0.16797,-2.28516 -0.5625,-3.38672 -0.38281,-1.10547 -0.97265,-2.15234 -1.76562,-3.08594 -3.10156,-3.66797 -8.41406,-4.67969 -12.60547,-2.32031 -0.008,0 -0.0156,0.008 -0.0234,0.0156 -0.0117,0.008 -0.0195,0.0156 -0.0312,0.0195 -11.94922,7.03515 -24.75781,12.66015 -38.05469,16.62109 -5.91406,1.75781 -11.9375,3.08594 -18,4.18359 H 181.5351 c -6.0625,-1.09765 -12.08985,-2.42578 -18,-4.18359 -13.30469,-3.96875 -26.10157,-9.58594 -38.0586,-16.62109 -0.008,-0.004 -0.0195,-0.0117 -0.0273,-0.0195 -0.008,-0.004 -0.0156,-0.008 -0.0273,-0.0156 -1.56641,-0.88672 -3.29297,-1.29297 -5.00391,-1.26953 z m 0,0"
         id="path5" />
    </g>
  </g>
</svg>
